<svg width="1537" height="311" viewBox="0 0 1537 311" fill="none" xmlns="http://www.w3.org/2000/svg">
<path d="M319.359 132.102H253.285L297.334 220.169L143.161 308.237H341.384L429.483 220.169L319.359 132.102Z" fill="#E8E4DF"/>
<path d="M1487.25 308.237V134.172H1535.27V308.237H1487.25ZM1485.87 58.5364H1537V109.305H1485.87V58.5364Z" fill="#E8E4DF"/>
<path d="M1366.95 311C1355.66 311 1345.64 308.698 1336.89 304.093C1328.37 299.488 1321.69 293.271 1316.85 285.443C1312.02 277.614 1309.6 268.75 1309.6 258.85C1309.6 241.811 1315.59 228.342 1327.56 218.442C1339.54 208.541 1355.55 203.591 1375.59 203.591H1400.81C1406.1 203.591 1409.9 202.555 1412.21 200.482C1414.74 198.41 1416.01 195.302 1416.01 191.157C1416.01 183.79 1413.24 177.918 1407.72 173.544C1402.42 168.939 1394.82 166.636 1384.91 166.636C1378 166.636 1372.13 168.018 1367.29 170.781C1362.69 173.313 1359.12 176.652 1356.58 180.796C1354.05 184.941 1352.67 189.431 1352.44 194.266H1309.6C1310.29 182.523 1313.74 171.932 1319.96 162.492C1326.41 153.052 1335.28 145.569 1346.57 140.043C1358.08 134.287 1371.79 131.409 1387.68 131.409C1402.19 131.409 1415.2 134.057 1426.72 139.352C1438.24 144.648 1447.22 152.246 1453.67 162.147C1460.35 171.817 1463.69 183.214 1463.69 196.338V308.237H1416.01V284.061C1412.78 292.12 1406.8 298.682 1398.04 303.747C1389.29 308.582 1378.93 311 1366.95 311ZM1379.04 276.118C1390.79 276.118 1399.89 272.434 1406.33 265.066C1412.78 257.468 1416.01 248.028 1416.01 236.746V234.674H1382.5C1374.43 234.674 1367.99 236.631 1363.15 240.545C1358.31 244.229 1355.89 249.525 1355.89 256.432C1355.89 262.418 1357.97 267.253 1362.11 270.937C1366.49 274.391 1372.13 276.118 1379.04 276.118Z" fill="#E8E4DF"/>
<path d="M1231.92 311C1210.04 311 1192.77 305.589 1180.1 294.768C1167.43 283.946 1160.41 268.98 1159.03 249.87H1200.49C1201.41 257.468 1204.63 263.57 1210.16 268.174C1215.92 272.549 1223.17 274.736 1231.92 274.736C1239.53 274.736 1245.63 273.125 1250.24 269.901C1255.07 266.678 1257.49 262.533 1257.49 257.468C1257.49 251.712 1255.19 247.568 1250.58 245.035C1246.2 242.502 1240.45 240.66 1233.31 239.509C1226.4 238.127 1218.91 236.746 1210.85 235.365C1202.79 233.753 1195.19 231.335 1188.05 228.112C1181.14 224.658 1175.38 219.593 1170.77 212.916C1166.17 206.008 1163.86 196.568 1163.86 184.595C1163.86 174.234 1166.63 165.025 1172.16 156.966C1177.68 148.908 1185.17 142.691 1194.61 138.316C1204.06 133.711 1214.88 131.409 1227.09 131.409C1248.51 131.409 1265.44 136.589 1277.87 146.95C1290.31 157.081 1296.99 170.781 1297.91 188.049H1256.45C1255.53 181.142 1252.42 175.731 1247.13 171.817C1241.83 167.672 1235.49 165.6 1228.12 165.6C1221.44 165.6 1215.92 167.097 1211.54 170.09C1207.16 172.853 1204.98 177.113 1204.98 182.869C1204.98 188.625 1207.28 192.769 1211.89 195.302C1216.49 197.604 1222.37 199.331 1229.51 200.482C1236.65 201.634 1244.25 202.785 1252.31 203.936C1260.6 205.087 1268.32 207.275 1275.46 210.498C1282.6 213.721 1288.47 218.672 1293.08 225.349C1297.68 231.796 1299.99 241.121 1299.99 253.324C1299.99 271.513 1293.77 285.673 1281.33 295.804C1269.12 305.935 1252.65 311 1231.92 311Z" fill="#E8E4DF"/>
<path d="M980.446 308.237V134.172H1028.47V158.348C1033.31 150.059 1040.33 143.497 1049.54 138.662C1058.99 133.826 1069.58 131.409 1081.33 131.409C1094.46 131.409 1105.86 134.402 1115.53 140.388C1125.44 146.145 1133.04 154.203 1138.33 164.564C1143.63 174.695 1146.28 186.437 1146.28 199.792V308.237H1097.91V210.498C1097.91 199.907 1094.8 191.273 1088.58 184.595C1082.6 177.688 1074.53 174.234 1064.4 174.234C1057.26 174.234 1051.04 175.961 1045.74 179.415C1040.45 182.638 1036.19 187.128 1032.96 192.884C1029.97 198.64 1028.47 205.318 1028.47 212.916V308.237H980.446Z" fill="#E8E4DF"/>
<path d="M872.708 311C854.972 311 839.195 307.086 825.375 299.258C811.556 291.429 800.615 280.838 792.554 267.484C784.723 253.899 780.807 238.473 780.807 221.204C780.807 203.936 784.723 188.625 792.554 175.271C800.615 161.686 811.556 150.98 825.375 143.151C839.195 135.323 854.972 131.409 872.708 131.409C890.673 131.409 906.45 135.323 920.04 143.151C933.859 150.98 944.685 161.686 952.516 175.271C960.577 188.625 964.608 203.936 964.608 221.204C964.608 238.473 960.577 253.899 952.516 267.484C944.685 280.838 933.859 291.429 920.04 299.258C906.45 307.086 890.673 311 872.708 311ZM872.708 269.901C881.46 269.901 889.061 267.829 895.51 263.685C902.189 259.54 907.256 253.899 910.711 246.762C914.397 239.394 916.239 230.875 916.239 221.204C916.239 211.534 914.397 203.13 910.711 195.993C907.256 188.625 902.189 182.869 895.51 178.724C889.061 174.58 881.46 172.508 872.708 172.508C864.185 172.508 856.585 174.58 849.905 178.724C843.226 182.869 838.043 188.625 834.358 195.993C830.903 203.13 829.176 211.534 829.176 221.204C829.176 230.875 830.903 239.394 834.358 246.762C838.043 253.899 843.226 259.54 849.905 263.685C856.585 267.829 864.185 269.901 872.708 269.901Z" fill="#E8E4DF"/>
<path d="M588.796 308.237V66.4799H684.842C699.583 66.4799 712.712 68.8974 724.228 73.7326C735.744 78.3375 744.842 85.1297 751.522 94.1093C758.201 103.089 761.541 113.91 761.541 126.574C761.541 139.007 758.662 149.368 752.904 157.657C747.145 165.946 740.466 172.162 732.865 176.307C744.382 180.681 754.055 187.819 761.886 197.719C769.717 207.62 773.633 220.744 773.633 237.091C773.633 251.827 769.948 264.606 762.577 275.427C755.437 286.018 745.418 294.192 732.52 299.948C719.622 305.474 704.65 308.237 687.606 308.237H588.796ZM639.583 263.685H682.769C697.28 263.685 707.875 261.152 714.554 256.087C721.234 250.791 724.574 243.193 724.574 233.292C724.574 223.392 721.234 215.794 714.554 210.498C707.875 205.202 697.28 202.555 682.769 202.555H639.583V263.685ZM639.583 159.038H680.696C691.982 159.038 700.274 156.736 705.572 152.131C710.869 147.526 713.518 141.194 713.518 133.136C713.518 125.077 710.754 118.861 705.226 114.486C699.929 109.881 691.522 107.579 680.005 107.579H639.583V159.038Z" fill="#E8E4DF"/>
<path d="M354.232 132.102H506.57V176.136H409.523L354.232 132.102Z" fill="#E8E4DF"/>
<path d="M0 132.102H228.736L250.761 176.136H0V132.102Z" fill="#E8E4DF"/>
<path d="M110.124 66.051H440.495V110.085H110.124V66.051Z" fill="#E8E4DF"/>
<path d="M220.248 0H374.421V44.034H220.248V0Z" fill="#E8E4DF"/>
</svg>
