<svg width="507" height="478" viewBox="0 0 507 478" fill="none" xmlns="http://www.w3.org/2000/svg">
<path d="M319.359 132.102H253.285L297.334 220.169L143.161 308.237H341.384L429.483 220.169L319.359 132.102Z" fill="#E8E4DF"/>
<path d="M354.232 132.102H506.57V176.136H409.523L354.232 132.102Z" fill="#E8E4DF"/>
<path d="M0 132.102H228.736L250.761 176.136H0V132.102Z" fill="#E8E4DF"/>
<path d="M110.124 66.051H440.495V110.085H110.124V66.051Z" fill="#E8E4DF"/>
<path d="M220.248 0H374.421V44.034H220.248V0Z" fill="#E8E4DF"/>
<path d="M481.668 476.621V389.748H505.63V476.621H481.668ZM480.979 352H506.492V377.338H480.979V352Z" fill="#E8E4DF"/>
<path d="M421.642 478C416.011 478 411.012 476.851 406.645 474.553C402.392 472.254 399.059 469.152 396.646 465.245C394.233 461.338 393.026 456.914 393.026 451.973C393.026 443.469 396.014 436.747 401.99 431.806C407.966 426.865 415.954 424.394 425.952 424.394H438.536C441.18 424.394 443.076 423.877 444.225 422.843C445.489 421.808 446.121 420.257 446.121 418.189C446.121 414.512 444.742 411.581 441.984 409.398C439.341 407.1 435.548 405.951 430.607 405.951C427.159 405.951 424.228 406.64 421.815 408.019C419.516 409.283 417.735 410.949 416.471 413.018C415.206 415.086 414.517 417.327 414.402 419.74H393.026C393.371 413.88 395.095 408.594 398.198 403.882C401.416 399.171 405.84 395.436 411.471 392.679C417.218 389.806 424.056 388.369 431.986 388.369C439.226 388.369 445.719 389.691 451.465 392.334C457.212 394.977 461.694 398.769 464.912 403.71C468.245 408.536 469.911 414.224 469.911 420.774V476.621H446.121V464.555C444.512 468.577 441.524 471.852 437.157 474.38C432.79 476.793 427.618 478 421.642 478ZM427.676 460.591C433.537 460.591 438.077 458.752 441.295 455.075C444.513 451.283 446.121 446.572 446.121 440.941V439.907H429.4C425.377 439.907 422.159 440.884 419.746 442.837C417.333 444.676 416.126 447.319 416.126 450.766C416.126 453.754 417.16 456.167 419.229 458.005C421.412 459.729 424.228 460.591 427.676 460.591Z" fill="#E8E4DF"/>
<path d="M354.27 478C343.352 478 334.732 475.3 328.411 469.899C322.091 464.498 318.585 457.029 317.896 447.491H338.582C339.042 451.283 340.651 454.328 343.409 456.627C346.282 458.81 349.902 459.902 354.27 459.902C358.062 459.902 361.108 459.097 363.406 457.488C365.82 455.88 367.026 453.811 367.026 451.283C367.026 448.41 365.877 446.342 363.579 445.078C361.395 443.814 358.522 442.895 354.959 442.32C351.511 441.631 347.776 440.941 343.754 440.252C339.732 439.447 335.939 438.241 332.376 436.632C328.929 434.908 326.055 432.38 323.757 429.048C321.458 425.601 320.309 420.889 320.309 414.914C320.309 409.743 321.688 405.146 324.447 401.124C327.205 397.103 330.94 394 335.652 391.817C340.364 389.518 345.765 388.369 351.856 388.369C362.544 388.369 370.991 390.955 377.197 396.126C383.403 401.182 386.736 408.019 387.196 416.637H366.509C366.049 413.19 364.498 410.49 361.855 408.536C359.211 406.468 356.051 405.434 352.373 405.434C349.04 405.434 346.282 406.181 344.099 407.674C341.915 409.053 340.823 411.179 340.823 414.052C340.823 416.925 341.973 418.993 344.271 420.257C346.57 421.406 349.5 422.268 353.063 422.843C356.626 423.417 360.418 423.992 364.441 424.566C368.578 425.141 372.428 426.233 375.99 427.841C379.553 429.45 382.484 431.921 384.782 435.253C387.081 438.471 388.23 443.124 388.23 449.215C388.23 458.293 385.127 465.36 378.921 470.416C372.83 475.472 364.613 478 354.27 478Z" fill="#E8E4DF"/>
<path d="M228.79 476.621V389.748H252.752V401.814C255.166 397.677 258.671 394.402 263.268 391.989C267.98 389.576 273.266 388.369 279.127 388.369C285.678 388.369 291.367 389.863 296.194 392.851C301.136 395.724 304.928 399.746 307.571 404.917C310.215 409.973 311.536 415.833 311.536 422.498V476.621H287.402V427.841C287.402 422.555 285.85 418.246 282.747 414.914C279.759 411.466 275.737 409.743 270.68 409.743C267.118 409.743 264.015 410.605 261.371 412.328C258.728 413.937 256.602 416.178 254.993 419.051C253.499 421.923 252.752 425.256 252.752 429.048V476.621H228.79Z" fill="#E8E4DF"/>
<path d="M175.032 478C166.183 478 158.31 476.047 151.415 472.14C144.519 468.233 139.06 462.947 135.038 456.282C131.131 449.502 129.177 441.803 129.177 433.185C129.177 424.566 131.131 416.925 135.038 410.26C139.06 403.48 144.519 398.137 151.415 394.23C158.31 390.323 166.183 388.369 175.032 388.369C183.996 388.369 191.869 390.323 198.649 394.23C205.545 398.137 210.946 403.48 214.854 410.26C218.876 416.925 220.887 424.566 220.887 433.185C220.887 441.803 218.876 449.502 214.854 456.282C210.946 462.947 205.545 468.233 198.649 472.14C191.869 476.047 183.996 478 175.032 478ZM175.032 457.488C179.399 457.488 183.192 456.454 186.41 454.386C189.742 452.317 192.271 449.502 193.995 445.94C195.834 442.263 196.753 438.011 196.753 433.185C196.753 428.358 195.834 424.164 193.995 420.602C192.271 416.925 189.742 414.052 186.41 411.984C183.192 409.915 179.399 408.881 175.032 408.881C170.78 408.881 166.987 409.915 163.654 411.984C160.322 414.052 157.736 416.925 155.897 420.602C154.173 424.164 153.311 428.358 153.311 433.185C153.311 438.011 154.173 442.263 155.897 445.94C157.736 449.502 160.322 452.317 163.654 454.386C166.987 456.454 170.78 457.488 175.032 457.488Z" fill="#E8E4DF"/>
<path d="M33.3696 476.621V355.964H81.2935C88.6487 355.964 95.1994 357.171 100.946 359.584C106.692 361.882 111.231 365.272 114.564 369.754C117.897 374.235 119.564 379.636 119.564 385.956C119.564 392.161 118.127 397.332 115.254 401.469C112.381 405.606 109.048 408.709 105.255 410.777C111.002 412.96 115.828 416.523 119.736 421.464C123.643 426.405 125.597 432.955 125.597 441.114C125.597 448.468 123.758 454.845 120.081 460.246C116.518 465.532 111.519 469.612 105.083 472.484C98.6472 475.242 91.177 476.621 82.6725 476.621H33.3696ZM58.7106 454.386H80.2591C87.4994 454.386 92.786 453.122 96.1188 450.594C99.4517 447.951 101.118 444.159 101.118 439.218C101.118 434.276 99.4517 430.484 96.1188 427.841C92.786 425.198 87.4994 423.877 80.2591 423.877H58.7106V454.386ZM58.7106 402.159H79.2248C84.8561 402.159 88.9934 401.01 91.6367 398.711C94.28 396.413 95.6016 393.253 95.6016 389.231C95.6016 385.209 94.2225 382.107 91.4643 379.923C88.8211 377.625 84.6263 376.476 78.88 376.476H58.7106V402.159Z" fill="#E8E4DF"/>
</svg>
