<!--
  Bonsai silhouette adapted from "Logoprojetbonsai.svg" on Wikimedia Commons.
  Original drawing: Crazou (French Wikipedia). SVG conversion: Mouagip.
  Source: https://commons.wikimedia.org/wiki/File:Logoprojetbonsai.svg
  License: CC BY-SA 3.0 (also dual-licensed GFDL 1.2+).
  Modifications: viewBox normalized to 400x500 via scale+translate wrapper,
  original 8-stop vertical linearGradient replaced with currentColor so the
  silhouette inherits theme tokens (web) or tint color (iOS).
  Distributed under CC BY-SA 3.0.
-->
<svg xmlns="http://www.w3.org/2000/svg" viewBox="-50 0 500 500" fill="#000000" aria-hidden="true">
  <g transform="translate(0 72) scale(1.2384)">
    <path d="M115.667,325.668L111,333.334l-6.833-1.833v-10c0,0-17.333-10.333-17.333-30.667
      c0-26.666,45-28.333,45-28.333s-2-0.833,0.333-4.333s17.5-9.667,17-12.667s-8.833-10.5-12.5-14.166s-11.333-12.5-13.333-12.5
      s-1.333,3-1.833,5s-3.167,4.666-3.167,4.666l-13.5,14.334c0,0,1.167-0.5,1.833,1.333c0.581,1.598-1.333,2.333-1.333,2.333
      s3.333-0.333,3.333,5.667c0,13.455-15.857,3.895-20.667,9.667c-0.833,1,1.333,2,0,4.166s-4.833,0.834-4.833,0.834
      s0.333,2.5-1.333,2.666s-2.167-1.833-2.167-1.833s-1.333,1.333-2.667,1.333s-5-2.666-5-2.666s-0.667,5.5-2.833,5.666
      s-3.5-7.166-3.5-7.166s-0.667,2.166-2.333,2s-2.167-1.334-2.167-1.334s-7.167,6.667-8.833,6.5s-2.833-2.333-2.833-2.333
      s-1.5,1.667-2.667,1.167s-0.5-4-0.5-4s-2.5,2.5-4,2.333S39,267.835,39,267.835s-1.833,5.666-3.167,7.666s-7.667,3.834-15,4.167
      s-10.667-5.333-11-7s1.167-5.5,3-9s0.167-7,0.167-7s-1.5,1.5-4.333,1S8,254.335,8,254.335s-1.333-0.167-2-2.5
      s3.333-1.667,3.333-1.667l-0.167-2.833c0,0,6.833-6.5,11.333-6.5s12.667,5.166,12.667,5.166l6.667-0.166c0,0,1.333-3.5,2.833-3.667
      s5.167,3.667,5.167,3.667s2.167,0,3.667,0.166s0.833,5,2,4.834s2.167-5.334,2.167-5.334s-0.667-2.5,1-3.5s1.5-5.333,2.833-5.666
      s2.167,2,3.5,2.166s0.5-2.5,2.667-2.5s2.667,5,4.167,4.667s14.667-5.5,10.167-8.833s-0.667,2.333-11,2.5s-15.333-8.5-18.333-8.834
      s-9.333,3.834-9.333,3.834s1,1.333-0.5,2.166s-3.667-0.333-3.667-0.333s0,1.333-0.667,2.333s-4,0.167-7.5,0s-4.333,5.334-7.333,5.5
      s-4-4-6-3.666s-2.667-1.834-2.833-3s-1.667-0.667-1.833-2.667s4-4,4-4s-3-0.333-3-2.667s3.667-2.5,3.667-2.5l1.5-2.833L17,213.835
      c0,0-6.333-3.334-7-5.667s3.333-4.333,3.333-4.333s0-3.667,0.833-4.667S17,198.835,17,198.835s0-1.334,0.5-2.5s7.833-0.167,9.5,0.5
      s3.833,2.166,3.833,2.166s4-0.833,6.167-1.166s4.833,0.833,4.833,0.833s2.333-1.667,3.667-1.667s3.667,2,3.667,2
      s1.667-1.5,3.833-0.333c3.483,1.876-1.028,7.286,3.833,8.5c1.333,0.333,1.667-1.167,3-1.167s0.167,2.167,2.5,1.334
      s1-2.5,0.833-5.334s3.833-3.833,3.5-5.833s-6.5-4.167-7.5-4.833s0-5.167,0-5.167s-1.167,1.167-1.333-3
      c-0.042-1.031,1.602-6.109,5.333-7.667c3.867-1.614,6.163-4.705,6.5-5c1.333-1.167,7.5-0.667,7.5-0.667s1.667-2.167,2.5-2.167
      s2,1.5,2,1.5s0.833-1,1.667-2s0.667-3.667,1.333-4.5S88,164.334,88,164.334s0.833-0.333,2.5,0.167s0.667,1.667,0.667,1.667h3
      c0,0-1.5-2,1-2.167s3.333,4.333,3.333,4.333s2.333-2,4-2.167s2.667,3.167,4.167,3.167s3-3.333,4-3.333s2.167,1,2.167,1l1.333-1
      l2.167,0.833c0,0,9.333-21,2.333-23.833c-3.066-1.241-7.167,3.333-8,4.167s-2.167,0.5-2.167,0.5s1,2,0,3.333s-3,0.5-3,0.5
      s-1.333,1.667-2.833,2s-3.5-3.833-4.5-4.833s-5.333,0.333-6.667,0.5s-0.5,3.667-0.5,3.667s-4.667,2.667-6.167,2.667
      s-1.667-3.167-1.667-3.167s-1.167,0-2.5-0.833s-2.167-2.667-3.333-2.167s0.333,3.667-0.167,5.167S74,157.334,74,157.334
      s0.167,2.167-0.833,3s-2.5-3-3.833-2.667s-4.333-1.167-5.5-1.333S62,157.668,62,157.668s-1.167-0.833-1.833-0.667
      s-3.333,3.167-4.667,3s-1.667-1.667-1.667-1.667S51,158.834,50,158.001s0.667-2.167,0.667-4s-2-2.167-2-4.167
      s6.667-3.333,7.167-4.667s0.333-2.833,1.833-3.833s1.5-6,1.5-6s-3.667,0.5-4.833-1.333s2.167-3.5,2.167-3.5l-4.5-2
      c0,0,2.667-2.667,4.5-5.167s-0.833-5.5,0.333-6.833S62,112.834,62,112.834s-1.333,3.667,0.167,4s3.667-4.5,5.5-4.833
      s2.5,2.667,2.5,2.667s-0.5-4.333,2-4.667s1.5,2.5,1.5,2.5L77,112.167l-0.5,2.667l1.5,0.833c0,0-0.5,1.667-1,3.833
      s3.833,1.833,5.667,4s-0.167,4.833-0.167,4.833l3.333-2.167c0,0,2.167,1.5,7.5,0.833s4.833-3.167,10-4s5.5-3.167,5.5-3.167
      l-0.833-1.5l1.167-2l-2-0.333l-1.333,1.5l-2-1.5l-4.5-0.5c0,0-0.833,3-3.667,2.333s-0.833-3.167-0.833-3.167s-4-1.5-5.333-1.667
      s-2.167,3-5.5,2.833s-3.167-4.167-3.167-4.167s-3.667-2.5-4.5-3.833S79,104.168,79,104.168l-3.667-2L78,102.001
      c0,0-0.333-1.5,0.167-2.833s2.333-0.167,2.333-0.167s4.333-5.167,7-5.5s7.333,4.667,7.333,4.667s0.333-2.333,2.5-2.5
      s3.5,2.5,3.5,2.5s1.167-1,2.333-0.5s1.333,2.333,3.333,1.833s1.167-3.833,1.167-3.833L112,94.834l-0.667-2.667
      c0,0,2.333,1.167,4,0.167s-0.833-2.667-0.833-2.667l0.833-1.333l-4.5-0.5l0.167-1.5l-1.333-0.5L111,83.667
      c0,0-1.333,0.167-2.167-0.833s1-2,1-2L108,78.501l3.167,0.333l-0.667-2.667l3,1l0.667-1.667l1.333,1.333l5.833-4.667
      c0,0,1,1.667,2.333,1.833s3.333-0.667,3.5-2.833s-3.833,0-3.833,0l-0.667-2L121,69.501l-0.333-1.167l-1.833-0.833
      c0,0,0.667-2,1.167-3.833s-3.167-3.5-3.333-4.667s3.333-1,3.333-1s-2-2.5-2.167-3.333s2-1,2-1s-4.667-4.5-4-5.833s5,1.833,5,1.833
      s-3.833-3-2.833-4.333s7,1.5,7,1.5s-2.5-2.833-1.833-3.5s4.167,0.833,4.167,0.833l0.5-1.833h1.833c0,0-0.833-1.333-1.5-2.333
      s0.167-4,1.5-4.667s3.333,4,3.333,4s1-5,2.167-5.5s1.5,2.5,1.5,2.5l0.833-3.167l1.833,1.667l2.833,0.333l2.833,4l-1.333,1.833
      c0,0-0.167,5,0.833,5.333s0.333-4.5,0.333-4.5l2.167-1.5v-3.167l-1.833-0.667l1-3.5l3.5-1.667v-2.333l2.833,1.833l0.667-1.833
      l9.167-0.667l0.667,3h-1.333l-0.667,2c0,0-3.833,0-3.5,1.667s6-0.333,6-0.333l-0.833-2l2.666-0.5l-1.166-5.167l2.5,1.333l1.5-3
      c0,0-1-1-1.5-1.833s2.667-0.5,2.667-2c0,0-2.5-1.833-2.5-3s2.333,0.167,2.333,0.167v-2.167c0,0-1.833-0.833-2.333-2.5
      s3.666-2.833,3.666-2.833l1.167,2.667l1.5-2l1.5,0.833l1.5-1.5l1.667,1.5l1.833-1.5l3.667,1.667c0,0,0-1.5,1.166-1.667
      s2,1.833,2,1.833l0.5-2l1.5,0.167l1.834-2.333l2.166,3.5c0,0,1.833-2.667,3.5-2.667s2.333,3.833,2.333,3.833
      s0.834-1.333,1.667-1.333s2.167,2,2.167,2s1.5-6,2.833-6.333s2.167,2.833,2.167,2.833s2.166-2,3.5-2.167S212,10.667,212,10.667
      s3.167-2.167,4.667-2s2.666,1,2.666,1s0.334-1,1.667-0.833s2.5,2.5,2.5,2.5s0.167-1.5,1.5-1.333s1,1.833,1,1.833
      s3.5-0.333,3.5,1.167s-2.667,1.167-2.667,1.167s1.334,1.167,2.834,1.833s2.5,3,2.5,3h2.666v2.833c0,0,3.667-3.333,5.334-2.5
      s-0.334,2.333-0.334,2.333l2.5,2.667c0,0,2.334-0.667,2.667,0.833s-1.167,2.167-1.167,2.167l2.834,1.833l-0.5,2.833
      c0,0,1.333-2,2.833-2s1.5,3.5,1.5,3.5s0.5-2.167,1.833-2.333s2.334,3.333,2.334,3.333s2.833-0.5,4.333,1.5s-3.166,4.167-3.166,4.167
      s2.5-1.833,4.166-0.167s-2.333,4.667-1.5,6.167s4.834-0.667,6.667,0.667S260,53.001,260,53.001s0.5,3-0.5,3s-2.5-2.167-2.833-2.833
      s2.833-0.5,2-1.667s-3.834,1-3.834,1s0.5,3.5-1.5,3.5S250,53.834,250,53.834s-0.5,2.333-1.667,2.333S246,54.501,246,54.501
      l-6.333-0.333c0,0-0.5,0.833-1.334,1s-2.833-2-2.833-2l-8.667,0.167l0.667,1.833c0,0-4.833-2.667-6.167-3.167s-1.333,2-3.333,2
      s-4.5-2.5-6.5-3s-5,2.833-5,2.833s-5.667-3-6,3.167s19.667,3.5,21.167,3.833s3.166,0.833,3.166,0.833s1.667-2,2.834-2.167
      s3.166,2.167,3.166,2.167s0.5-2.167,1.667-2s1.333,3.167,1.333,3.167l3.334-0.333l1.333,2.167l2.834,0l2.5-1.5l0.666,3l2.667,0.5
      l-2,1.833L249,70.168c0,0,1.667-1.5,3.334-1.5s1.166,2.333,2.666,2.5s3-2,4.334-0.5s-1.167,3.333-1.167,3.333L261,76.834v-2h2v-2
      l2.834-0.167c0,0-0.334-4.167,1-4.833s2.5,2.333,2.5,2.333s2.833-4.667,4-4.5s0,6.333,0,6.333s2.833-4.167,4.166-3.833
      s-0.166,3.5-0.166,3.5l2.166-0.667l3.834,4.167c0,0,2.666-2.833,3.833-2.333S285,78.501,285,78.501l2,0.667v3.667l2.834-2.167v2.167
      c0,0,2.333,0.833,2.5,2.167S290,87.167,290,87.167s1.333,2.833,0.167,5.833s-3.667,5.167-3.667,5.167l-0.167,1.667h-1.666
      l-1.167-2.333l-1,2l-2.167,0.333l-1.666,1.333l-1.5-1h-6c0,0-0.833,2.667-2.167,2.667s-1.5-1.667-2.166-2.833
      S263,100.667,263,100.667s3.5,3.667,2.667,4.333s-5.333-2.5-5.333-2.5s0,2.667-1.334,2.5s-1.833-2.667-1.833-2.667
      s-4.167,1.333-8,2.167s-8.167,4.833-13.333,4.667s-12.667-2.333-12.667-2.333s1.167,6,4.167,9.167s14.833,4.5,16.5,4.5
      s2.833-2.5,3.833-2.667s1.5,1.167,1.5,1.167s1.333-2.5,2.5-2.5s1.5,2.833,1.5,2.833s2.333-3.167,3.833-2.333
      s-0.166,1.833-0.666,3.167s0.666,2.833,2.166,2.5s2.834,1.667,2.834,1.667s-4.5,1.667-4.334,3.5s5.334,0,7.5,0
      s2.334,2.167,3.834,2.167s7.166-1.333,7.166-2.667s-2.5-2-4-2.333s-2.666,1.333-4.166,1s0.666-2.167,1.333-2.833s-0.333-3.5,1-3.333
      s1.5,2.167,1.5,2.167l1.333-1l2.834,2.5c0,0,0.333-4.667,1.333-4.667s2.333,5.167,2.333,5.167s0.667-0.667,1.334-1.333
      s3.5,0.5,3.5,0.5s-0.167-4.167,0.666-4.333s2.834,3.167,2.834,3.167s2-1.833,2.666-0.833s-3,5.667-1.833,6.5s3.333-1.5,4.833-1.667
      s2.834,2.5,2.834,2.5s1.5-2.667,3-2.667s1.666,3.167,2.666,4.5s4.5,1.333,4.5,2.333s-2.833,0.833-2.833,0.833
      s0.667,0.833-0.667,2.333s-3.333,2-3.333,2s4.5-0.5,5.333,0.5s0.167,2.833,0.167,2.833l7-3.167l1.166,3.833
      c0,0,3.167,0.167,3.167,2.833s-3.667,3.5-3.667,3.5s-0.666,2.833-2.166,2.833s-3.834-3.5-5-3.667s-3,2.833-4,2.667s-2.5-1-2.5-1
      l-1.167,1.167l-1.667-0.833c0,0-7.666,0.667-10.166,1.667s-8,6.833-8,6.833s5,1.667,9-1.333c1.562-1.171,3.666-4.5,5.333-4.667
      s2.833,1.167,2.833,1.167s1.667-1.167,2.5-1.167s2.167,2.167,2.167,2.167s1.833-2,3-1.667s0,3,1.167,3.333s4.5-0.333,5.333-0.167
      s-0.333,2.667-0.667,3.667s2.834,2.167,2.834,2.167s-1,1.333-1.334,2.333s1.5,1,2,1.833s0.834,1.5,0.5,2.5s2.5,0.667,2,2
      s-4.833,0.833-5.166,1.333s2.667,2.5,2,3.667c-0.667,1.167-6.167-2.333-7.167-2.167s1.167,2.333,0.5,3.333s-1.166,0.833-1.666,1.666
      s1.666,1.5,1.666,2.834s-1.666,1.833-1.833,2.5s1.833,1.5,1.333,3s-3.833,0.833-3.833,0.833s1.167,2.333,0.5,3.667s-3-1.5-3.833-1.5
      s-0.334,5.5-2,6s-1.667-3.334-3.5-5.167s-4.334,1-7.167-1.333s1.667-9.167,1.667-9.167s-13-1-16.334-7
      c-2.871-5.167-9.333-6.5-9.333-6.5s0.333,2.333-0.5,2.833s-3.333-1.833-3.333-1.833s-0.834,1.167-1.667,1.833
      s-3.333,0.833-3.333,0.833s0.666,2.5-0.667,3.167s-3-1.833-4-1.667s-0.167,2.167-1.5,2.5c-1.333,0.333-0.167-3-2.667-2.333
      s1.334,3.167,1.334,3.167s-1.5,0.5-1.5,1.5s2.833,3.333,2.333,4s-3.5-1.333-4.667-0.833s0.5,2.333-0.5,2.833s-4.5-2.333-5.5-2.333
      s-1.166,2-2.5,2s-2.333-1.834-2.666-3.5s-3.667-5.167-5.667-5.167s-0.667,2.333-2,3s-4.5-1-5.667-1s-1.166,1.833-2.666,1.833
      s-3-1-4.5-1s-4.667,1-4.667,2s6.333,7.667,7.333,7.834s3.5-1.834,5-1.5s1.167,2.5,2,3.333s4,0.667,4,2.833s-2.166,2.5-2.833,3
      s1.5,1.834,1.167,3.167s-2.834,0.833-2.834,0.833s-4.167,5.667-5.833,5.667s-4-0.667-4.667-2.333s1.167-0.834,1.333-2.667
      s-2.666-2.667-3.833-4.167s0.333-1.666,0.333-4.5s-5.666-2.666-6.833-5s3.167-2.166,3.167-2.166s-9.167-5-9.834-4.5
      s4,2.166,2.334,4.166s-8.333-3.333-9.5-3.333s-8.167,3.334-10,3.334s-3.167-2.834-5.5-2.834s-15.333,10.667-15.333,25.167
      c0,21.536,27.076,20.302,35,29.667c3.959,4.679,2.582,11.917,5.666,15s7.5,3.166,14.667,3.166c13.343,0,17.539,12,38.166,12
      c15.898,0,23.001,20.081,23.001,27.333c0,22.667-17,30.834-17,30.834l-0.334,10.666l-7.333,1l-3.333-7.333
      c0,0-28.833,3.833-45.5,3.833C139.834,330.334,115.667,325.668,115.667,325.668z M27.5,259.334c-2.833,1.5,0.833,8.832,4.5,6.166
      S30.405,257.796,27.5,259.334z M45.833,260.334c-1,1.5-2.667,3.5-2.667,3.5s9-2.834,6-6
      C48.033,256.637,46.833,258.834,45.833,260.334z M82.333,246c0,0,3.667-0.166,4.5,0.167s0.833,2.5,0.833,2.5s0.5-2.167,1-2.833
      s2-2.667,2.5-3.667s3.333,0.167,3.333,0.167s0.833-1.5,2.5-1.667s2.667,0.833,2.667,0.833s17.167-16.833,14-20.166
      c-1.182-1.244-12.333,9.666-24.333,14.833c-6.513,2.804-9.667,7.5-9.667,7.5L82.333,246z M43,222
      c0.167-5.833-13.5,3.334-12.167,5.667s0.333-1,3.167-2.5S42.881,226.164,43,222z M77.667,200.167c1,0,2.167,0.833,2.167-1
      s-5.451-0.04-4.667,1.333C75.833,201.667,76.667,200.167,77.667,200.167z M115.167,179.333l0.833,2.5l-1.167,1.5l0.5,2.834l-5,1
      c0,0-4.167,2.166-5.333,3.333s-3.667,2.333-3.667,2.333s-0.167,1.334-0.833,2.834s3,1.166,2.833,2.333S102,201.167,102,201.167
      s-0.667-0.667-2.5-0.5s-1.833,1.166-1.667,2.833s3,1,4.333,0.5s0.667-3.167,1.5-3.667S107,200.5,107,200.5v-2.333c0,0,2.167,0.5,2-1
      c-0.244-2.191-5.089-2.979,1.333-7.167c5.863-3.823,12.833-2.621,12.833-8.333c0-3.166,0.3-4.362-4.167-5
      C116.667,176.334,115.167,179.333,115.167,179.333z M133.167,173c2.062,0,2.167-4,4.667-6.667s7-4.167,9.833-6.5s5-3.5,5-3.5
      l0.5-3.167c0,0,3.667-0.667,1.5-3.167s-4.5,3.667-6.167,3s-6-3-5.5-4.833s1-1.333,1.5-2.5s-1.167-1.833-1.167-1.833
      s-0.333-7.667-2.167-7.667s1.5,9-1,8.833s-4.668-2.985-7.833-3.167c-5.833-0.333-2.667,10.5-3.167,13.167s-3,10.667-3,10.667
      S130,165,131,167S130.334,173,133.167,173z M183,157.167c-0.114,3.999,3.498,5.793,6.167,5.667c10.497-0.5,13.831-9.828,15.333-10
      c1.024-0.117,1.388,1.51,2.161,1.923c1.247,0.667,2.777-0.308,4.097-0.104c1.451,0.224,2.804,1.526,3.865,2.475
      c-0.826-0.739-2.059-2.496-1.998-3.65c0.13-2.449,3.115-0.172,4.442-1.063c0.811-0.544,0.667-1.892,1.8-2.191
      c2.439-0.645,3.688,4.156,4.981,5.465c1.924,1.946,1.65-0.785,1.66-2.269c0.014-2.063-0.395-4.044-0.509-6.087
      c-1.288-0.028-2.803-0.635-3.745-1.507c-1.134-1.05-1.457-2.143-3.21-2.361c-1.401-0.175-3.162,0.236-3.329,1.831
      c-0.124,1.189,0.788,2.755-1.218,2.256c-1.599-0.397-2.511-2.385-4.331-2.385c-1.833,0-4.334,3.333-6.167,4.5
      S183.333,145.5,183,157.167z M220,163.125c1.775-0.812,0.375-2.375-1.25-2c-1.123,0.259-2.375-1.375-2.375-1.375
      S215.625,165.125,220,163.125z M237.375,156c-1.287,0,0.625,2.625,2,2S238.75,156,237.375,156z M242.125,157.75
      c-0.796-0.088-0.125,1.625,1.25,1.125S243.25,157.875,242.125,157.75z M261.125,144.875c-1.397-0.279,1.25,5.5,5.5,5.75
      s3.125-3.25,0-5S262.375,145.125,261.125,144.875z M273.5,168.75c-1.544,0.091-2.75,1,0.125,1.875S275.625,168.625,273.5,168.75z
      M277.375,175.625c3.625,1.125,4.737-0.699,1.375-1.75C276.75,173.25,273.75,174.5,277.375,175.625z M291.875,178.625
      c2.19-1.152,0.375-2-2-1.875c-1.461,0.077-2.875-1.25-2.875-1.25S289.5,179.875,291.875,178.625z M285,141.75
      c2,1.75,3.73,1.972,4.625,1.375c1.875-1.25-2.375-1.375-3.25-2.875s-1.125-3-2.875-2.25S283,140,285,141.75z M284.5,131.875
      c1.428,0.476-0.25-3.125-2-2.875S283.375,131.5,284.5,131.875z M280,130c-0.5-2.75-3.25,0.625-3.25,0.625S280.403,132.217,280,130z
      M247.875,148.625c2.922-0.996,0.75-6.125-1.25-6.75s-3.125,1.375-4.25,0.125s-0.75-2.75-0.75-2.75s-3-2.25-5.125-3.25
      s-7-2.875-8.125-1.75s0.875,2.125,1.625,4.875s2.875,1,3.75,1.875s-1.625,2.25,3.125,1.875S242.375,150.5,247.875,148.625z
      M218.125,137.125c0.394,2.622,4.125,4,4.125,4S220,138.5,219.75,136s-2.5-4-2.5-4S217.75,134.625,218.125,137.125z M226.25,128.75
      c6.34,2.774,10.611,2.001,10.5,0.5c-0.25-3.375-3.875,0.375-8.625-2.375s-6.75-6-8.25-4.625S222.25,127,226.25,128.75z
      M194.625,133.875c2.672,0,2.625-4.375,4.625-4.125s2.125,1.25,2.125,1.25s1.375-2.75,3.75-2.25s4.5,2.25,4.5,2.25l1.375-1.125
      l1.25,1c0,0,1.5-0.75,1.5-3s-2-5.5-2-5.5l0.125-7.375c0,0-6.375-7.625-11.5-7.625s-13.125,4.25-13.125,4.25s-2,2.875-1,3.75
      s5.375-4.625,5.375-4.625l0.625,1.25c0,0,6.25-2.75,7.25-1.75s-1.25,2.625-1,4.375s4,2.875,3.75,5.75s-11.5,5.875-11.375,7.375
      S192.625,133.875,194.625,133.875z M157.375,131c-2.494-2.877-6.875,1.125-4,2.875S159,132.875,157.375,131z M145,114.625
      c-4.272-3.204-2.5,3.125-4.125,5.875s-2.75,5.5-2.75,5.5S151.5,119.5,145,114.625z M131.625,121.375c-1.125,1-7-1.125-7.375,1.5
      s3.25,1,6.875,0s6.461-2.908,4.25-4.75C133.125,116.25,132.75,120.375,131.625,121.375z M117,130.375
      c-1.5,2.625-11.125,7.5-6.875,9.5s11.676-13.249,9.375-14.125C116.875,124.75,118.5,127.75,117,130.375z M86,136.375
      c3.141-0.846,5.625,3.375,6.25-0.75S89,131,86,132.875s-8.5,3.25-8.5,3.25S82.75,137.25,86,136.375z M126.375,98.875
      c-2-1.75-5.625,4.625-5.625,4.625S128.375,100.625,126.375,98.875z M132.125,92.625c0.715,1.715,5.25,1.375,6.625,1
      s2.5-2.125,2.5-2.125l1.125,2.375L145.5,91l2.375,1.875L147,90.125l4.625-0.5c0,0-0.625-2.5,0.25-3.25s3.125-1.75,2.25-2.75
      S148,85.375,146.75,86.5s-5.375,1.5-5.375,1.5l-2.125,1.375L138.75,92C138.75,92,131.5,91.125,132.125,92.625z M213,92
      c0,0-3.625-8.5-7.75-4.625S213,92,213,92z M236,104.875c2.219-1.109-12.25-3.875-12.25-3.875S231.75,107,236,104.875z
      M241.75,102.75c0,0,2-1.5,4-0.875s4.673-1.21,2.75-1.875C241.625,97.625,241.75,102.75,241.75,102.75z M259.75,94.25
      c-0.973,0.619,0.5,2.5,1.625,1.75S261.125,93.375,259.75,94.25z M248,90.375c0,0,3.375,2.375,4.625,0.375s0-1.625-0.875-1.75
      S248,90.375,248,90.375z M141.375,76.625c0,0,4.25-3,2.75-4.75S141.375,76.625,141.375,76.625z M137.375,70.625
      c-0.267,0.712,3,1.125,3,1.125S137.75,69.625,137.375,70.625z M162.375,67.5c0,0,3.625-0.125,4.375,0.5s-0.125,1.25,0.875,1.625
      s1.625-1.75,2.75-1.25s1.125,1.75,1.875,2s1.875-0.5,2.25-0.375s1.25,2.25,1.875,2.375s2.875-2.75,3.625-2.5
      s-0.125,2.875-0.125,2.875s4.375-2.625,4.625-4.75s-3.5-3.5-3.5-4.625s-0.375-3.75-2.25-4s-9,3-9,3l-2.25-1.5L162.375,67.5z
      M165.625,57.125c0.333-1.082-4.75-1.625-5.375-0.25s-0.5,3.25-0.5,3.25L153.5,56c0,0-0.375,2.75-0.75,3s-2.375-1-2.375-1
      s-1.625,1.125-1.5,2.25S150,62.625,150,62.625L148,66c0,0,1.75-1.5,4.125-2.5s4.625-3.75,5.375-2.625s0.5,5.375,0.5,5.375
      s1.25-3,2.625-3.75s0.375-2.375,1.5-3.25S165.125,58.75,165.625,57.125z M136.5,53.375c-1.616,0.951,4.125,4.375,5.125,5.625
      s2.5,2.875,2.5,2.875S140.75,50.875,136.5,53.375z M162.5,48.25c-1.246,1.303,0.625,0.625,2.5,0.75s2.875,2.125,2.875,2.125
      s-1.25-3.375-0.625-4.875s4-1.625,3.5-3.25s-3.25,0.625-4.25,1.125s-0.875-1.5-2-1.25S165.25,45.375,162.5,48.25z M174.875,43.75
      l1.25,0.375l1.25,1.75l2.625-2.5L176.875,43l-0.5-3.125L174.875,43.75z M188.25,41c0,0,6.56-2.627,4.5-4
      C190.125,35.25,188.25,41,188.25,41z M203.75,44.375c0,0,3.764,4.286,4.125,2.375C208.75,42.125,203.75,44.375,203.75,44.375z
      M222.25,34c-2.047,0.558,0.875,4.375,2.5,3.25S223.625,33.625,222.25,34z M180.25,23.75c-2.119-4.026-3-2.5-3.375-1.875
      s1.875,0,1.875,1.625s-0.603,4.173,2,3.25C184.625,25.375,181.5,26.125,180.25,23.75z"/>
  </g>
</svg>
